<?xml version="1.0" encoding="UTF-8" standalone="no"?>
<!-- Creator: fig2dev Version 3.2.8b -->
<!-- CreationDate: 2023-01-27 16:43:33 -->
<!-- Magnification: 1 -->
<svg	xmlns="http://www.w3.org/2000/svg"
	xmlns:xlink="http://www.w3.org/1999/xlink"
	width="146pt" height="58pt"
	viewBox="-12 1417 2424 956">
<g fill="none">
<!-- Text -->
<text xml:space="preserve" x="1449" y="1982" fill="#000000" font-family="Times" font-style="normal" font-weight="normal" font-size="240" text-anchor="start">v</text>
<!-- Text -->
<text xml:space="preserve" x="1551" y="2032" fill="#000000" font-family="Times" font-style="normal" font-weight="normal" font-size="120" text-anchor="start">i+1</text>
<!-- Circle -->
<circle cx="600" cy="1500" r="75" fill="#000000"
	stroke="#000000" stroke-width="8px"/>
<!-- Circle -->
<circle cx="1800" cy="1800" r="75" fill="#000000"
	stroke="#000000" stroke-width="8px"/>
<!-- Line -->
<polyline points=" 0,2100 2400,2100"
	stroke="#000000" stroke-width="8px"/>
<!-- Line -->
<polyline points=" 600,2025 600,2175"
	stroke="#000000" stroke-width="8px"/>
<!-- Line -->
<polyline points=" 1800,2025 1800,2175"
	stroke="#000000" stroke-width="8px"/>
<!-- Line -->
<polyline points=" 300,1650 600,1500 1800,1800 2100,1950"
	stroke="#000000" stroke-width="8px"/>
<!-- Line -->
<polyline points=" 2100,1950 2400,2100"
	stroke="#000000" stroke-width="8px" stroke-dasharray="40 40"/>
<!-- Line -->
<polyline points=" 300,1650 0,1800"
	stroke="#000000" stroke-width="8px" stroke-dasharray="40 40"/>
<!-- Text -->
<text xml:space="preserve" x="421" y="1916" fill="#000000" font-family="Times" font-style="normal" font-weight="normal" font-size="120" text-anchor="start">i</text>
<!-- Text -->
<text xml:space="preserve" x="319" y="1866" fill="#000000" font-family="Times" font-style="normal" font-weight="normal" font-size="240" text-anchor="start">v</text>
<!-- Text -->
<text xml:space="preserve" x="1695" y="2353" fill="#000000" font-family="Times" font-style="normal" font-weight="normal" font-size="192" text-anchor="start">i+1</text>
<!-- Text -->
<text xml:space="preserve" x="569" y="2358" fill="#000000" font-family="Times" font-style="normal" font-weight="normal" font-size="192" text-anchor="start">i</text>
<!-- Line -->
<polyline points=" 565,1599 564,1600 561,1601 557,1603 553,1606 550,1610 547,1615 544,1621 542,1629
 541,1639 540,1649 539,1660 538,1673 537,1687 537,1703 536,1719 535,1734 535,1750
 534,1764 533,1777 532,1788 531,1798 529,1808 528,1816 525,1822 522,1827 518,1831
 514,1834 510,1836 508,1837 506,1838"
	stroke="#000000" stroke-width="8px" stroke-linejoin="bevel"/>
<!-- Line -->
<polyline points=" 565,2076 564,2075 561,2074 557,2072 553,2069 550,2065 547,2060 544,2054 542,2046
 541,2036 540,2026 539,2015 538,2002 537,1988 537,1973 536,1957 535,1941 535,1926
 534,1912 533,1899 532,1888 531,1878 529,1868 528,1860 525,1854 522,1849 518,1845
 514,1842 510,1840 508,1839 506,1838"
	stroke="#000000" stroke-width="8px" stroke-linejoin="bevel"/>
<!-- Line -->
<polyline points=" 1759,1877 1757,1877 1754,1878 1751,1880 1748,1882 1745,1885 1744,1889 1742,1895
 1741,1902 1740,1910 1740,1920 1739,1930 1738,1940 1738,1950 1737,1958 1736,1965
 1734,1971 1733,1975 1730,1978 1727,1980 1724,1982 1721,1983 1719,1983"
	stroke="#000000" stroke-width="8px" stroke-linejoin="bevel"/>
<!-- Line -->
<polyline points=" 1759,2088 1758,2088 1755,2087 1751,2085 1747,2082 1744,2077 1742,2071 1741,2064
 1740,2055 1740,2046 1739,2036 1738,2025 1738,2016 1737,2007 1736,2001 1734,1995
 1733,1991 1730,1988 1727,1986 1724,1984 1721,1983 1719,1983"
	stroke="#000000" stroke-width="8px" stroke-linejoin="bevel"/>
<!-- Line -->
<polyline points=" 609,2119 609,2120 611,2123 612,2126 615,2130 619,2133 623,2136 629,2138 636,2139
 645,2141 655,2142 668,2143 683,2144 699,2144 716,2145 733,2146 749,2147 764,2147
 777,2148 787,2150 796,2151 803,2153 809,2155 813,2158 817,2161 820,2165 821,2168
 823,2171 823,2172"
	stroke="#000000" stroke-width="8px" stroke-linejoin="bevel"/>
<!-- Line -->
<polyline points=" 1035,2119 1035,2120 1034,2123 1032,2126 1029,2130 1025,2133 1021,2136 1015,2138
 1008,2139 1000,2141 989,2142 976,2143 962,2144 946,2144 929,2145 912,2146 896,2147
 882,2147 869,2148 858,2150 850,2151 843,2153 837,2155 833,2158 829,2161 826,2165
 824,2168 823,2171 823,2172"
	stroke="#000000" stroke-width="8px" stroke-linejoin="bevel"/>
<!-- Line -->
<polyline points=" 1049,2118 1050,2119 1052,2122 1055,2126 1060,2129 1066,2133 1073,2136 1083,2138
 1095,2140 1111,2141 1123,2142 1138,2143 1155,2144 1173,2144 1192,2145 1213,2145
 1234,2146 1254,2147 1275,2147 1294,2148 1312,2148 1329,2149 1344,2150 1357,2151
 1372,2152 1384,2154 1394,2156 1401,2159 1407,2163 1412,2166 1415,2170 1417,2173
 1418,2174"
	stroke="#000000" stroke-width="8px" stroke-linejoin="bevel"/>
<!-- Line -->
<polyline points=" 1786,2118 1785,2119 1783,2122 1780,2126 1775,2129 1769,2133 1762,2136 1752,2138
 1740,2140 1725,2141 1712,2142 1697,2143 1681,2144 1663,2144 1643,2145 1623,2145
 1602,2146 1581,2147 1561,2147 1541,2148 1523,2148 1507,2149 1492,2150 1479,2151
 1464,2152 1452,2154 1442,2156 1435,2159 1429,2163 1424,2166 1421,2170 1419,2173
 1418,2174"
	stroke="#000000" stroke-width="8px" stroke-linejoin="bevel"/>
<!-- Line -->
<polyline points=" 1044,1667 1043,1667 1040,1668 1036,1670 1033,1673 1029,1677 1026,1681 1024,1687
 1022,1693 1021,1702 1019,1713 1018,1725 1018,1740 1017,1756 1016,1773 1015,1789
 1014,1805 1013,1820 1012,1832 1011,1843 1010,1852 1008,1858 1005,1864 1002,1868
 999,1872 995,1875 991,1877 988,1878 987,1878"
	stroke="#000000" stroke-width="8px" stroke-linejoin="bevel"/>
<!-- Line -->
<polyline points=" 1044,2088 1043,2088 1040,2087 1036,2085 1033,2082 1029,2078 1026,2074 1024,2069
 1022,2062 1021,2053 1019,2042 1018,2030 1018,2015 1017,2000 1016,1983 1015,1966
 1014,1951 1013,1936 1012,1924 1011,1913 1010,1904 1008,1897 1005,1892 1002,1888
 999,1884 995,1881 991,1879 988,1878 987,1878"
	stroke="#000000" stroke-width="8px" stroke-linejoin="bevel"/>
<!-- Circle -->
<circle cx="1049" cy="1611" r="38" fill="#ffffff"
	stroke="#000000" stroke-width="8px"/>
<!-- Text -->
<text xml:space="preserve" x="769" y="2300" fill="#000000" font-family="Times" font-style="normal" font-weight="normal" font-size="192" text-anchor="start">x</text>
<!-- Text -->
<text xml:space="preserve" x="1281" y="2302" fill="#000000" font-family="Times" font-style="normal" font-weight="normal" font-size="192" text-anchor="start">1-x</text>
<!-- Text -->
<text xml:space="preserve" x="822" y="1944" fill="#000000" font-family="Times" font-style="normal" font-weight="normal" font-size="240" text-anchor="start">d</text>
</g>
</svg>
